# xmcd
#
# Track frame offsets:
#	180
#	17367
#	32806
#	50077
#	64671
#	89282
#	105546
#	119518
#	131398
#	143526
#	155869
#	167824
#	186005
#	200454
#	216897
#
# Disc length: 3037 seconds
#
# Revision: 0
# Processed by: cddbd v1.5.2PL0 Copyright (c) Steve Scherf et al.
# Submitted via: dBpowerAMP V4.0
#
DISCID=d00bdb0f
DTITLE=조용필 - 조용필 베스트 CD1
DYEAR=1900
DGENRE=Other
TTITLE0=창 밖의 여자
TTITLE1=돌아와요 부산항에
TTITLE2=단발머리
TTITLE3=잊혀진 사랑
TTITLE4=한 오백년
TTITLE5=돌아오지 않는 강
TTITLE6=사랑은 아직도 끝나지 않았네
TTITLE7=정
TTITLE8=대전부르스
TTITLE9=너무 짧아요
TTITLE10=슬픈 미소
TTITLE11=축복(촛불)
TTITLE12=잊기로 했네
TTITLE13=외로워 마세요
TTITLE14=간양록
EXTD=
EXTT0=
EXTT1=
EXTT2=
EXTT3=
EXTT4=
EXTT5=
EXTT6=
EXTT7=
EXTT8=
EXTT9=
EXTT10=
EXTT11=
EXTT12=
EXTT13=
EXTT14=
PLAYORDER=
